<svg id="Group_640" data-name="Group 640" xmlns="http://www.w3.org/2000/svg" xmlns:xlink="http://www.w3.org/1999/xlink" width="191.868" height="197.474" viewBox="0 0 191.868 197.474">
  <defs>
    <linearGradient id="linear-gradient" x1="336.14" y1="0.811" x2="336.168" y2="0.097" gradientUnits="objectBoundingBox">
      <stop offset="0" stop-color="#212121"/>
      <stop offset="1" stop-color="#424242"/>
    </linearGradient>
    <linearGradient id="linear-gradient-2" x1="-42.208" y1="-22.663" x2="-42.381" y2="-24.587" gradientUnits="objectBoundingBox">
      <stop offset="0" stop-color="#ffab91"/>
      <stop offset="1" stop-color="#ffccbc"/>
    </linearGradient>
    <linearGradient id="linear-gradient-3" x1="367.965" y1="-19.402" x2="368.492" y2="-19.796" xlink:href="#linear-gradient-2"/>
    <linearGradient id="linear-gradient-4" x1="766.566" y1="-39.002" x2="765.436" y2="-39.345" xlink:href="#linear-gradient-2"/>
    <linearGradient id="linear-gradient-5" x1="157.263" y1="0.248" x2="156.713" y2="0.828" gradientUnits="objectBoundingBox">
      <stop offset="0" stop-color="#fff"/>
      <stop offset="1" stop-color="#e3f2fd"/>
    </linearGradient>
    <linearGradient id="linear-gradient-6" x1="4701.815" y1="1.06" x2="4703.415" y2="0.115" xlink:href="#linear-gradient-2"/>
    <linearGradient id="linear-gradient-7" x1="504.642" y1="-0.833" x2="505.301" y2="1.972" xlink:href="#linear-gradient-2"/>
    <linearGradient id="linear-gradient-8" x1="-12.715" y1="1.288" x2="-12.468" y2="-0.325" gradientUnits="objectBoundingBox">
      <stop offset="0" stop-color="#007bfa"/>
      <stop offset="1" stop-color="#4194fa"/>
    </linearGradient>
    <linearGradient id="linear-gradient-9" x1="102.585" y1="1.349" x2="102.957" y2="0.142" gradientUnits="objectBoundingBox">
      <stop offset="0" stop-color="#4a3e57"/>
      <stop offset="1" stop-color="#2c223d"/>
    </linearGradient>
    <linearGradient id="linear-gradient-10" x1="386.549" y1="0.85" x2="387.089" y2="0.47" xlink:href="#linear-gradient-2"/>
    <linearGradient id="linear-gradient-11" x1="857.238" y1="0.84" x2="856.006" y2="0.508" xlink:href="#linear-gradient-2"/>
    <linearGradient id="linear-gradient-12" x1="-131.259" y1="-7.264" x2="-130.21" y2="-9.003" xlink:href="#linear-gradient-2"/>
    <linearGradient id="linear-gradient-13" x1="158.344" y1="-0.069" x2="158.158" y2="0.969" xlink:href="#linear-gradient-9"/>
    <linearGradient id="linear-gradient-14" x1="121.953" y1="0.5" x2="120.953" y2="0.5" xlink:href="#linear-gradient-5"/>
  </defs>
  <g id="Group_619" data-name="Group 619" transform="translate(18.968 1.927)">
    <path id="Path_1419" data-name="Path 1419" d="M1285.193,453.789a28.657,28.657,0,0,1-10.959,22.593c-.042.042-.084.084-.127.084l-1.011.759a27.8,27.8,0,0,1-3.372,2.065,24.086,24.086,0,0,1-2.824,1.264c-.379.126-.717.3-1.1.422a25.923,25.923,0,0,1-4.046,1.054c-.3.042-.548.126-.843.169-.843.126-1.728.211-2.613.3h-.337c-.253,0-.464.042-.717.042h-.8A28.755,28.755,0,0,1,1250,425.759c.674-.169,1.391-.3,2.108-.421a29.451,29.451,0,0,1,3.878-.337h.464a30.356,30.356,0,0,1,4.426.337h.042a28.894,28.894,0,0,1,7.123,2.065c.548.253,1.138.506,1.686.8a24.137,24.137,0,0,1,3.161,1.9h0A28.923,28.923,0,0,1,1285.193,453.789Z" transform="translate(-1227.7 -417.359)" fill="#fdb833"/>
    <g id="Group_618" data-name="Group 618" transform="translate(5.644)">
      <path id="Path_1420" data-name="Path 1420" d="M1254.733,434.239c3.119.843,10.664,2.487,16.9-.927,1.686-.927,6.238-3.035,5.353-5.775-.295-.969-.506-1.939-.506-1.939-.084-.464-.211-1.054-.3-1.939-.421-4.089-.421-8.388-2.824-12.35a8.02,8.02,0,0,0-1.222-1.6,10.271,10.271,0,0,0-7.587-2.824c-4.552.169-9.231,4.763-10.622,11.507a41.207,41.207,0,0,1,1.1,6.533A40.572,40.572,0,0,1,1254.733,434.239Z" transform="translate(-1236.309 -406.871)" fill="#212121"/>
      <path id="Path_1421" data-name="Path 1421" d="M1274.693,475.965c-.59,4.763-1.56,9.189-1.012,12.181a21.187,21.187,0,0,0,.8,3.077,27.789,27.789,0,0,1-3.372,2.065,24.1,24.1,0,0,1-2.824,1.265c-.379.126-.717.3-1.1.422a25.93,25.93,0,0,1-4.046,1.054c-.3.042-.548.126-.843.169-.843.126-1.728.211-2.613.3-.084-.548-.169-1.054-.253-1.6h0a25.136,25.136,0,0,0-.843-2.993c-.211-.717-.464-1.391-.632-2.023-2.065-6.238-3.035-7.25-3.161-10.5a9.979,9.979,0,0,1,.843-4.932,7.273,7.273,0,0,1,.843-1.349c.253-.295.379-.379.548-.59a5.708,5.708,0,0,0,1.265-2.782h0a16.21,16.21,0,0,0-.253-5.9,13,13,0,0,0,2.571-1.265,11.092,11.092,0,0,0,1.939-1.517,10.583,10.583,0,0,0-.042-2.276,11.6,11.6,0,0,0-.3-1.138,19.548,19.548,0,0,0-.632-1.855c0-.042-.042-.126-.042-.169-.169-.422-.3-.927-.506-1.475-.084-.3-.211-.632-.3-.927h0c-.042-.126-.084-.211-.126-.337a2.438,2.438,0,0,0-.211-.59c.548-.253,1.138-.548,1.686-.8s1.1-.506,1.644-.8h.042c.548-.253,1.054-.506,1.6-.759.506-.211.969-.464,1.475-.717.042.126.126.3.169.464a.041.041,0,0,0,.042.042c.042.169.126.3.169.464.379,1.1.759,2.318,1.1,3.583.169.59.3,1.18.464,1.77.253,1.138.464,2.192.632,3.2.042.211.084.422.126.674,1.391.674,2.74,1.307,4.131,1.981a26.01,26.01,0,0,1,.969,3.751,27.469,27.469,0,0,1,.464,3.92A47.914,47.914,0,0,1,1274.693,475.965Z" transform="translate(-1234.689 -431.358)" fill="#ffccbc"/>
      <path id="Path_1422" data-name="Path 1422" d="M1276.195,553.8a24.1,24.1,0,0,1-2.824,1.265c-.379.126-.717.3-1.1.422a25.923,25.923,0,0,1-4.046,1.054c-.3.042-.548.126-.843.169-.843.126-1.728.211-2.613.3h-.337a3.938,3.938,0,0,1,.084-1.6h0c1.433-.211,2.824-.379,4.257-.59C1271.263,554.474,1273.708,554.137,1276.195,553.8Z" transform="translate(-1239.815 -491.869)" fill="url(#linear-gradient)"/>
      <path id="Path_1423" data-name="Path 1423" d="M1279.843,451.8a16,16,0,0,1-1.9,4.763,11.321,11.321,0,0,1-2.276,2.571c-.59-1.855-1.18-3.709-1.77-5.606l1.391-1.77c.506-.253,1.054-.548,1.644-.8a18.641,18.641,0,0,1,3.33-1.054A18.158,18.158,0,0,1,1279.843,451.8Z" transform="translate(-1247.89 -431.763)" fill="url(#linear-gradient-2)"/>
      <path id="Path_1424" data-name="Path 1424" d="M1270.1,420.88a7.118,7.118,0,0,0-2.065,6.407c.084.3.253.969.632,2.445a21.21,21.21,0,0,0,.548,2.15,9.37,9.37,0,0,0,3.878,5.48,3.217,3.217,0,0,0,1.686.674c2.065.042,3.667-2.529,4.721-4.341a10.51,10.51,0,0,0,1.011-2.276l.253-1.138a3.164,3.164,0,0,0,1.222-.632c1.433-1.475.464-4.847-.632-6.744h0a7.612,7.612,0,0,0-3.035-3.077A7.41,7.41,0,0,0,1270.1,420.88Z" transform="translate(-1247.794 -413.913)" fill="#ffccbc"/>
      <path id="Path_1425" data-name="Path 1425" d="M1331.911,505.464l-3.414-3.709c-.506-.632-1.054-1.222-1.559-1.855a2.529,2.529,0,0,0-.3.59,2.655,2.655,0,0,0,.253,1.56q.253.632.632,1.9c-.927.632-1.812,1.264-2.74,1.9a2.866,2.866,0,0,0-.042,1.222,6.493,6.493,0,0,0,.59,1.265c.379.969.169,1.307.59,1.644a2.926,2.926,0,0,0,.969.464h0c.3.211.59.422.843.632a3.346,3.346,0,0,0,1.138,0c1.1-.169,1.56-.8,2.192-1.1.632-.253,1.644-.3,3.456.885l1.138-3.119Z" transform="translate(-1324.7 -460.688)" fill="url(#linear-gradient-3)"/>
      <path id="Path_1426" data-name="Path 1426" d="M1337.864,513.795a.678.678,0,0,1,.169-.3,2.053,2.053,0,0,1,1.433-.506c.337,0,1.138.169,1.265.632.084.379-.3.548-.169.885s.632.337.969.8a2.141,2.141,0,0,0,.126,1.054.927.927,0,0,0,.211.253c.211.169.379.042.59.126a1.088,1.088,0,0,1,.506,1.391.614.614,0,0,1-.379.253,5.441,5.441,0,0,1-2.445.253,2.919,2.919,0,0,1-1.222-.8c-.337-.422-.169-.506-.632-1.686a4.245,4.245,0,0,1-.506-1.728C1337.822,514.174,1337.822,513.963,1337.864,513.795Z" transform="translate(-1337.607 -468.26)" fill="url(#linear-gradient-4)"/>
      <path id="Path_1427" data-name="Path 1427" d="M1302.84,484.7a7.009,7.009,0,0,0-3.119,3.077,5.956,5.956,0,0,0-.548,2.74,31.151,31.151,0,0,1-1.433,8.093c-2.234.126-4.468.253-6.7.337l-1.138,3.119c4.763,2.951,9.526,5.9,14.289,8.809.506-2.192,1.054-4.384,1.56-6.575Q1304.358,494.5,1302.84,484.7Z" transform="translate(-1280.118 -451.895)" fill="#fff"/>
      <path id="Path_1428" data-name="Path 1428" d="M1268.232,488.183a13.412,13.412,0,0,0-1.307,1.9.918.918,0,0,0-.127.211v.042a7.728,7.728,0,0,0-.969,3.288c-.042.59-.042,1.012-.042,2.824v2.74l-1.012.759a27.787,27.787,0,0,1-3.372,2.065,24.085,24.085,0,0,1-2.824,1.264c-.379.126-.717.3-1.1.422-.337.042-.632.084-.969.126a25.684,25.684,0,0,1-3.077.084,29.425,29.425,0,0,1-3.709-.3h-.042l-.379-1.012c-.759-2.023-1.307-3.583-1.56-4.3,0-.042-.042-.126-.042-.169-.042-.169-.169-.422-.253-.8a24.86,24.86,0,0,0-.759-2.613c-1.1-3.077-2.065-4.257-2.192-6.575-.126-2.108.464-3.119,1.307-5.48a38.762,38.762,0,0,0,1.18-4.131,33.414,33.414,0,0,0,.759-5.606c.548-.422,1.1-.885,1.686-1.307,1.138-.632,2.276-1.222,3.414-1.855-.211-1.1-.379-2.234-.59-3.33.042,0,.126-.042.169-.042h.042c.674-.211,1.349-.422,2.023-.674,1.517-.506,3.077-.969,4.594-1.475.042,0,.084-.042.126-.042.169,1.1.337,2.15.506,3.246.042.211.084.421.126.674a19.565,19.565,0,0,0,2.529,1.012,17.293,17.293,0,0,0,3.2.885,10.86,10.86,0,0,0,1.517.211.849.849,0,0,1,.464.126h.084a.914.914,0,0,0,.211.126h0a2.089,2.089,0,0,1,.927,1.349q.506,3.035.759,5.437C1270.171,483.716,1269.328,486.708,1268.232,488.183Z" transform="translate(-1224.982 -440.036)" fill="url(#linear-gradient-5)"/>
      <path id="Path_1429" data-name="Path 1429" d="M1249.632,478.5Z" transform="translate(-1207.014 -448.308)" fill="#1565c0"/>
      <path id="Path_1430" data-name="Path 1430" d="M1257.534,493.21a26.594,26.594,0,0,1-4.089,12.1,19.227,19.227,0,0,1-1.9,2.023l-.126.126v-.042l-1.012.759a27.778,27.778,0,0,1-3.372,2.065,24.084,24.084,0,0,1-2.824,1.264c-.379.127-.717.3-1.1.422a25.916,25.916,0,0,1-4.046,1.054c-.084-.126-.211-.211-.3-.337l.3-.548.337-.59.169-.295,7.671-13.151.337-.548s1.054-8.177,1.18-11.3a9.372,9.372,0,0,1,1.813-4.3,27.028,27.028,0,0,1,2.74-3.414.917.917,0,0,0,.211.126h0c.464.211,1.264.632,1.644.8.674.337,1.349,1.475,1.855,3.246A28.186,28.186,0,0,1,1257.534,493.21Z" transform="translate(-1210.618 -448.308)" fill="#fff"/>
      <path id="Path_1431" data-name="Path 1431" d="M1284.143,559.9c-.3.042-.548.126-.843.169.211-.169.379-.337.548-.464A1.937,1.937,0,0,1,1284.143,559.9Z" transform="translate(-1255.73 -495.225)" fill="url(#linear-gradient-6)"/>
      <path id="Path_1432" data-name="Path 1432" d="M1290.579,445.6a3.763,3.763,0,0,0-.379,1.77,1.406,1.406,0,0,0,.337,1.012,1.211,1.211,0,0,0,1.307,0c-.168-.253-.337-.548-.506-.843A15.03,15.03,0,0,1,1290.579,445.6Z" transform="translate(-1266.339 -429.276)" fill="#ffab91"/>
      <path id="Path_1433" data-name="Path 1433" d="M1297.389,443.878h0a.6.6,0,0,1-.759-.422l-.253-.927a.6.6,0,0,1,.421-.759h0a.6.6,0,0,1,.759.421l.253.927A.637.637,0,0,1,1297.389,443.878Z" transform="translate(-1274.919 -427.048)" fill="#212121"/>
      <path id="Path_1434" data-name="Path 1434" d="M1286.589,440.778h0a.6.6,0,0,1-.759-.422l-.253-.927a.6.6,0,0,1,.422-.759h0a.6.6,0,0,1,.759.422l.253.927A.637.637,0,0,1,1286.589,440.778Z" transform="translate(-1259.567 -425.255)" fill="#212121"/>
      <path id="Path_1435" data-name="Path 1435" d="M1287.683,434.391a8.276,8.276,0,0,0-1.222.211,4.885,4.885,0,0,0-1.138.464.267.267,0,1,1-.169-.506,4.885,4.885,0,0,1,1.138-.464,4.955,4.955,0,0,1,1.222-.211.287.287,0,0,1,.337.169A.266.266,0,0,1,1287.683,434.391Z" transform="translate(-1260.155 -422.492)" fill="#212121"/>
      <path id="Path_1436" data-name="Path 1436" d="M1299.082,437.691a8.289,8.289,0,0,0-1.222.211,4.893,4.893,0,0,0-1.138.464.267.267,0,1,1-.168-.506,4.882,4.882,0,0,1,1.138-.464,4.953,4.953,0,0,1,1.222-.211.287.287,0,0,1,.337.169A.266.266,0,0,1,1299.082,437.691Z" transform="translate(-1276.36 -424.401)" fill="#212121"/>
      <path id="Path_1437" data-name="Path 1437" d="M1282.819,413.207a3.837,3.837,0,0,0-1.349-1.517c-2.234-1.307-5.311.59-5.733.843a6.666,6.666,0,0,0-4.131-2.065c-3.246-.3-5.859,2.192-7,4.384a9.254,9.254,0,0,0-.084,7.418,10.978,10.978,0,0,0,1.728,2.993c.717-.422,1.433-.8,2.107-1.222-.169-.885-.337-1.812-.506-2.7l.885,2.4a12.583,12.583,0,0,0,1.18-1.012,20.181,20.181,0,0,0,4.51-6.2,24.762,24.762,0,0,0,2.15,4.468c.717,1.138,1.265,1.812,2.192,2.108a2.79,2.79,0,0,0,1.433.042c.211.169.379.337.59.506-.084-.337-.042-.464.042-.506s.127,0,.3-.042a1.964,1.964,0,0,0,.379-.126,3.068,3.068,0,0,1,.8.843,4.159,4.159,0,0,1,0,3.794,3.4,3.4,0,0,0,2.529-1.56c.422-.969-.211-1.812-.674-3.2C1282.65,418.56,1284.758,416.284,1282.819,413.207Z" transform="translate(-1248.336 -408.938)" fill="#212121"/>
      <path id="Path_1438" data-name="Path 1438" d="M1286.07,456.328a2.059,2.059,0,0,0,.843-.548,1.876,1.876,0,0,0,.506-.885.174.174,0,1,0-.337-.084,1.445,1.445,0,0,1-.421.717,1.31,1.31,0,0,1-1.054.464,1.275,1.275,0,0,1-.717-.379.179.179,0,0,0-.253.253,1.5,1.5,0,0,0,.97.506A1.889,1.889,0,0,0,1286.07,456.328Z" transform="translate(-1259.554 -434.525)" fill="#212121"/>
    </g>
  </g>
  <g id="Group_626" data-name="Group 626" transform="translate(100.475 29.915)">
    <path id="Path_1439" data-name="Path 1439" d="M1034.9,573.67v.885a26.31,26.31,0,0,1-1.138,6.828c-.084.337-.211.632-.3.927a26.229,26.229,0,0,1-4.679,8.261v.042a18.837,18.837,0,0,1-1.77,1.9l-.084.084a27.774,27.774,0,0,1-6.112,4.468c-.042.042-.126.042-.169.084a25.615,25.615,0,0,1-9.442,2.824,8.182,8.182,0,0,1-1.012.084c-.169,0-.337.042-.506.042h-2.15a3.193,3.193,0,0,1-.632-.042c-.169,0-.379-.042-.548-.042a26.441,26.441,0,0,1-20.148-12.055c-.126-.169-.211-.337-.337-.506a26.426,26.426,0,0,1,.885-28.915c.169-.253.337-.464.506-.717a26.439,26.439,0,0,1,3.92-4.215,7.3,7.3,0,0,0,.632-.548,30.816,30.816,0,0,1,3.414-2.36.321.321,0,0,1,.169-.084,26.188,26.188,0,0,1,6.66-2.655,4.472,4.472,0,0,1,.8-.169,1.791,1.791,0,0,1,.464-.084c.211-.042.422-.084.674-.126.084,0,.169-.042.253-.042a3.277,3.277,0,0,1,.674-.084,24.126,24.126,0,0,1,3.541-.253c.927,0,1.855.042,2.74.126h.126a5.162,5.162,0,0,0,.8.084c.211.042.464.084.674.126h.169c.211.042.422.084.59.126.253.042.548.126.8.169a32.16,32.16,0,0,1,3.583,1.1h0c.126.042.211.084.337.126h.042c.422.169.8.337,1.222.548.042,0,.084.042.169.084A26.579,26.579,0,0,1,1034.9,573.67Z" transform="translate(-955.35 -516.039)" fill="#ee6352"/>
    <g id="Group_625" data-name="Group 625">
      <path id="Path_1440" data-name="Path 1440" d="M1048.241,530.782c-.632-.674-1.222-1.391-1.012-1.812.169-.337.674-.253.8-.506.3-.506-.843-1.77-2.107-2.782a13.762,13.762,0,0,0-7.334-2.866c-1.939-.169-5.058-.506-7.376,1.433a5.207,5.207,0,0,0-1.812,3.541,4.629,4.629,0,0,0,.632,2.529c.969,1.475,2.36,1.307,5.227,2.4,3.92,1.475,4.679,2.445,6.828,2.74a26.74,26.74,0,0,0,2.7-1.517C1046.007,532.805,1047.145,531.794,1048.241,530.782Z" transform="translate(-988.672 -501.855)" fill="#007bfa"/>
      <path id="Path_1441" data-name="Path 1441" d="M1048.37,532.306s.464-.759-.674-1.77-7.081-1.728-8.767-2.065-3.583-.8-3.962.337a1.485,1.485,0,0,0,1.264,1.939,36.783,36.783,0,0,1,4.173,1.391C1040.488,532.18,1048.37,532.306,1048.37,532.306Z" transform="translate(-991.203 -504.981)" fill="#0d47a1"/>
      <path id="Path_1442" data-name="Path 1442" d="M1044.841,529.9c-.337,3.33-2.7,6.786-4.721,6.955-2.445.169-5.479-4.384-6.786-11.549.8-.211,1.56-.464,2.318-.674l-.253-2.15v-.042c.506-.464,1.012-.969,1.56-1.475,1.391-.8,2.782-1.56,4.215-2.36a21.717,21.717,0,0,1,1.6,5.606c.042.337.084.716.126,1.054a4.585,4.585,0,0,1,.042.759c.59.337,1.18.717,1.77,1.054A14.08,14.08,0,0,1,1044.841,529.9Z" transform="translate(-986.958 -499.494)" fill="#ffccbc"/>
      <path id="Path_1443" data-name="Path 1443" d="M1045.761,525.36c-2.192.59-6.744-1.391-7.461-2.782v-.042c.506-.464,1.012-.969,1.56-1.475,1.391-.8,2.782-1.56,4.215-2.36a21.717,21.717,0,0,1,1.6,5.606A8.906,8.906,0,0,1,1045.761,525.36Z" transform="translate(-989.943 -499.552)" fill="url(#linear-gradient-7)"/>
      <path id="Path_1444" data-name="Path 1444" d="M1037.023,486.806c-2.529,1.855-2.74,5.016-2.782,6.027-.042.59-.042,1.686,1.054,5.269.464,1.475,1.1,3.414,2.065,5.732a1.449,1.449,0,0,0,1.6.885,11.252,11.252,0,0,0,8.683-6.027,11.072,11.072,0,0,0,.211-8.6,7.14,7.14,0,0,0-2.613-3.372A7.313,7.313,0,0,0,1037.023,486.806Z" transform="translate(-991.11 -480.345)" fill="#ffccbc"/>
      <path id="Path_1445" data-name="Path 1445" d="M1057.984,509.8a6.535,6.535,0,0,0,.717,3.119c.169.3.337.548.464.759a1.523,1.523,0,0,1-1.012-.337c-.253-.295-.253-.674-.253-1.391A14.4,14.4,0,0,0,1057.984,509.8Z" transform="translate(-1011.608 -494.403)" fill="#ffab91"/>
      <g id="Group_624" data-name="Group 624" transform="translate(42.899 13.1)">
        <g id="Group_620" data-name="Group 620" transform="translate(4.434)">
          <path id="Path_1446" data-name="Path 1446" d="M1052.861,506.583a2,2,0,0,1-1.6,2.318,2.04,2.04,0,0,1-2.192-1.812,1.921,1.921,0,1,1,3.793-.506Z" transform="translate(-1048.928 -504.581)" fill="#ffdace"/>
          <path id="Path_1447" data-name="Path 1447" d="M1052.8,506.606h0a2.119,2.119,0,0,1-1.77,2.192,2.093,2.093,0,0,1-2.234-1.56h0c-.042-.126-.042-.253-.084-.379v-.084h0a2.174,2.174,0,0,1,1.728-2.4,2.1,2.1,0,0,1,2.318,1.939v.042h0A.533.533,0,0,1,1052.8,506.606Zm-1.812,1.939a1.9,1.9,0,0,0,1.517-2.192,1.869,1.869,0,0,0-2.023-1.686,1.963,1.963,0,0,0,.506,3.878Z" transform="translate(-1048.7 -504.351)" fill="#212121"/>
        </g>
        <g id="Group_621" data-name="Group 621" transform="translate(0 0.806)">
          <path id="Path_1448" data-name="Path 1448" d="M1064.064,508.509a1.852,1.852,0,0,1-1.391,2.192,1.787,1.787,0,0,1-1.9-1.728,1.852,1.852,0,0,1,1.391-2.192A1.81,1.81,0,0,1,1064.064,508.509Z" transform="translate(-1060.629 -506.555)" fill="#ffdace"/>
          <path id="Path_1449" data-name="Path 1449" d="M1064,508.639h0a.317.317,0,0,1-.042.211h0c-.042.126-.042.253-.084.379a1.838,1.838,0,0,1-1.391,1.265,1.406,1.406,0,0,1-.717-.084h0a2.164,2.164,0,0,1-1.349-1.77,2.271,2.271,0,0,1,.422-1.686,1.754,1.754,0,0,1,1.1-.674,1.92,1.92,0,0,1,1.981,1.475h0a.379.379,0,0,1,.042.211h0a.32.32,0,0,0,.042.169Zm-2.318,1.475a1.216,1.216,0,0,0,.759.126,1.706,1.706,0,0,0,1.264-2.023,1.677,1.677,0,0,0-1.77-1.6,1.456,1.456,0,0,0-1.054.759,1.811,1.811,0,0,0-.211,1.264A1.927,1.927,0,0,0,1061.686,510.115Z" transform="translate(-1060.4 -506.264)" fill="#212121"/>
        </g>
        <g id="Group_622" data-name="Group 622" transform="translate(3.351 2.272)">
          <path id="Path_1450" data-name="Path 1450" d="M1057.953,510.693l-.253-.084c.042-.211.211-.759.506-.843.253-.084.506.042.885.422l-.211.169c-.38-.379-.548-.379-.59-.379A1.265,1.265,0,0,0,1057.953,510.693Z" transform="translate(-1057.7 -509.741)" fill="#212121"/>
        </g>
        <g id="Group_623" data-name="Group 623" transform="translate(8.392 1.722)">
          <rect id="Rectangle_329" data-name="Rectangle 329" width="0.253" height="2.023" transform="translate(0.044 0.599) rotate(-99.957)" fill="#212121"/>
        </g>
      </g>
      <path id="Path_1451" data-name="Path 1451" d="M1024.252,649.073c.379.169.759.337,1.18.506l-12.771,3.035c-3.625.843-7.25,1.728-10.875,2.571-.337-.211-.717-.379-1.1-.59-.169-.084-.379-.211-.59-.3-.084-.042-.211-.126-.295-.169a1.056,1.056,0,0,1-.295-.169,1.967,1.967,0,0,0-.422-.211q-3.6-1.96-7.714-4.173c-1.18-.632-2.36-1.264-3.583-1.939-2.318-1.264-4.763-2.571-7.292-3.962,2.95-.464,5.943-.969,8.894-1.433,2.824-.464,5.648-.927,8.514-1.391l3.92-.632a.319.319,0,0,0,.169-.042c.169-.042.337-.042.506-.084.548-.084,1.138-.169,1.686-.3,1.559.843,3.077,1.644,4.552,2.36a3.481,3.481,0,0,1,.548.3c1.265.632,2.445,1.222,3.583,1.728.042,0,.042,0,.042.042,1.728.843,3.33,1.56,4.721,2.15.464.211.927.422,1.349.59C1018.983,647.008,1021.175,647.724,1024.252,649.073Z" transform="translate(-945.251 -569.608)" fill="#212121"/>
      <path id="Path_1452" data-name="Path 1452" d="M1015.169,643.3s-.674,1.222-1.18,1.433-3.583,2.15-3.583,2.15l-.506,3.962.969.126,2.74.759a6.07,6.07,0,0,1,1.77-2.7,7,7,0,0,1,2.7-1.433c-.126-1.349-.253-2.655-.379-4Z" transform="translate(-950.288 -571.633)" fill="#ffccbc"/>
      <path id="Path_1453" data-name="Path 1453" d="M1014.74,548.1s3.751,7.208,4.089,12.94,1.433,17.619,1.265,18.335-.8,10.875-.8,10.875l-3.625-.843a92.8,92.8,0,0,1-4.215-10.453,94.914,94.914,0,0,1-3.794-15.427C1009.977,558.343,1012.337,553.242,1014.74,548.1Z" transform="translate(-951.377 -516.56)" fill="#007bfa"/>
      <path id="Path_1454" data-name="Path 1454" d="M1024.537,578.269a7.677,7.677,0,0,1-5.69-1.18c-1.433-.969-3.92-5.48-2.487-14.71,1.264-8.051,4-10.158,5.817-20.443.337-1.981.548-3.625.674-4.679a7.692,7.692,0,0,1,2.782-1.517.993.993,0,0,1,.337-.084c.211-.042.464-.084.759-.169a9.291,9.291,0,0,0,1.559-.506c.3-.126.379-.169,1.1-.464.674-.3,1.433-.59,1.77-.759a12.833,12.833,0,0,1,3.119-.759,5.8,5.8,0,0,0-.421,2.74,5.962,5.962,0,0,0,.295,1.349,52.238,52.238,0,0,0,4.342,7.545,27.434,27.434,0,0,0,3.456-6.786,27.133,27.133,0,0,0,.8-2.7c.3.126.59.3.885.422.337.169.674.379,1.011.548a17.654,17.654,0,0,1,2.445,1.644c.674.506,1.264,1.054,1.854,1.56,2.318,4.932,2.15,8.43,1.518,10.79-1.981,7.081-9.062,16.734-8.725,18.125a25.486,25.486,0,0,1,.422,10.538,9.567,9.567,0,0,1-1.939,1.18C1033.895,583.032,1026.6,579.365,1024.537,578.269Z" transform="translate(-985.622 -507.825)" fill="url(#linear-gradient-8)"/>
      <path id="Path_1455" data-name="Path 1455" d="M1047.639,649.256c-3.625.843-7.25,1.728-10.875,2.571-.8.211-1.6.379-2.4.59l-2.36-1.644-.717-.506a26.441,26.441,0,0,1-20.148-12.055c-.126-.169-.211-.337-.337-.506a16.04,16.04,0,0,1,1.433-3.667,51.8,51.8,0,0,1,13.024,1.1,35.7,35.7,0,0,1,7.545,2.318s.042,0,.127.084c.253.126.843.422,1.77.969h0c.464.3,1.054.674,1.686,1.1.126.084.253.169.422.3a.219.219,0,0,0,.169.084c.969.674,2.065,1.475,3.288,2.487.843.674,1.728,1.433,2.7,2.276.3.3.632.548.927.843h0c.59.548,1.18,1.1,1.77,1.686l.464.464c.253.3.548.548.843.843h0C1047.218,648.792,1047.428,649.045,1047.639,649.256Z" transform="translate(-980.23 -566.25)" fill="url(#linear-gradient-9)"/>
      <path id="Path_1456" data-name="Path 1456" d="M977.762,658.056,964.4,648.994l23.436-3.794,22.8,5.1Z" transform="translate(-923.672 -572.732)" fill="#e0e0e0"/>
      <path id="Path_1457" data-name="Path 1457" d="M954.321,634.742l-.421-.3c1.6-7.461,3.161-14.879,4.763-22.34,10.79-2.4,21.623-4.805,32.414-7.208.169.084.379.169.548.253C979.19,615.058,966.756,624.879,954.321,634.742Z" transform="translate(-900.232 -549.419)" fill="#fff"/>
      <path id="Path_1458" data-name="Path 1458" d="M953.9,635.147c1.6-7.418,3.161-14.837,4.763-22.255,10.833-2.445,21.707-4.847,32.54-7.292-1.475,7.292-2.951,14.542-4.426,21.834Z" transform="translate(-899.81 -549.824)" fill="#fff"/>
      <path id="Path_1459" data-name="Path 1459" d="M1010.6,655.564c0,.253-.042.548-.042.8-2.234.548-4.51,1.054-6.744,1.6L991.039,661c-3.625.843-7.25,1.728-10.875,2.571-.8.211-1.6.379-2.4.59l-2.36-1.644-.716-.506-8.472-5.985-1.812-1.264V654.3h0l5.4,3.667h0l6.07,4.089.717.506.759.506.422.253h0l1.391-.337,11.3-2.655,7.924-1.855,4.342-1.012h0l7.882-1.9Z" transform="translate(-923.63 -577.996)" fill="#e0e0e0"/>
      <path id="Path_1460" data-name="Path 1460" d="M1024.9,543.351l3.541-1.307A20.6,20.6,0,0,0,1026,540.4a1.977,1.977,0,0,0-.126.379,5.741,5.741,0,0,0-.084,1.391A1.757,1.757,0,0,1,1024.9,543.351Z" transform="translate(-966.975 -512.105)" fill="#0d47a1"/>
      <path id="Path_1461" data-name="Path 1461" d="M1063.8,539.153a6.26,6.26,0,0,0,2.023,1.9,10.563,10.563,0,0,0,3.077,1.012h0a15.14,15.14,0,0,1-1.56-.632,6.2,6.2,0,0,1-1.18-.674,3.908,3.908,0,0,1-1.265-1.855A5.8,5.8,0,0,0,1063.8,539.153Z" transform="translate(-1023.831 -511.238)" fill="#0d47a1"/>
      <path id="Path_1462" data-name="Path 1462" d="M1028.608,479.859a4.108,4.108,0,0,0,1.012,3.33,2.5,2.5,0,0,0-.632,1.855,2.62,2.62,0,0,0,2.445,2.15c.422-1.433.969-1.855,1.433-2.023.843-.3,1.307.548,2.613.422,1.1-.084,1.138-.717,2.529-.885a2.7,2.7,0,0,1,1.9.337,2.833,2.833,0,0,1,.674.969,15.243,15.243,0,0,1,.927,2.866c.127-.126.211-.253.337-.379a1.807,1.807,0,0,1,.843-2.318,1.567,1.567,0,0,1,1.56,1.307c.042.464-.253.506-.506,1.475-.169.717-.084,1.012-.379,1.265a1.38,1.38,0,0,1-1.138.211,3.253,3.253,0,0,0,.379,1.391c.042.126.126.211.59,1.012a8.714,8.714,0,0,0,.464.759,4.041,4.041,0,0,0,.717-.59,9.819,9.819,0,0,0,.8-.927,7.584,7.584,0,0,0,.927-4,3.161,3.161,0,0,0,2.065-2.571,3.259,3.259,0,0,0-1.1-2.655,3.022,3.022,0,0,0,.675-3.035,3.128,3.128,0,0,0-1.391-1.644,3.179,3.179,0,0,0-1.433-3.161,3.322,3.322,0,0,0-2.993-.169,4.207,4.207,0,0,0-2.571-1.517,4.487,4.487,0,0,0-3.667,1.18,3.976,3.976,0,0,0-2.993.126,3.921,3.921,0,0,0-2.023,2.529A3.3,3.3,0,0,0,1028.608,479.859Z" transform="translate(-988.259 -473.272)" fill="#ff6f00"/>
      <path id="Path_1463" data-name="Path 1463" d="M1152.172,530.838l-3.077-4.173c-.464-.674-.927-1.349-1.391-2.065a2.049,2.049,0,0,0-.379.548,2.365,2.365,0,0,0,.084,1.6c.126.464.3,1.138.464,1.981-1.012.548-1.981,1.1-2.993,1.6a2.694,2.694,0,0,0-.169,1.265c.042.548.253.632.464,1.349.3,1.012.042,1.349.379,1.728a2.948,2.948,0,0,0,.927.59h0c.253.253.548.464.8.717a2.914,2.914,0,0,0,1.138.126c1.1-.042,1.644-.674,2.36-.843.674-.211,1.728-.126,3.414,1.264l1.475-3.035Z" transform="translate(-1144.7 -502.965)" fill="url(#linear-gradient-10)"/>
      <path id="Path_1464" data-name="Path 1464" d="M1158.48,538.48a.756.756,0,0,1,.211-.3,2.053,2.053,0,0,1,1.517-.337c.337.042,1.138.3,1.222.759.084.379-.379.548-.3.885s.632.422.885.927a2.93,2.93,0,0,0,0,1.1.548.548,0,0,0,.211.3c.211.169.422.084.59.169a1.141,1.141,0,0,1,.379,1.475.994.994,0,0,1-.379.253,5.312,5.312,0,0,1-2.487,0,2.616,2.616,0,0,1-1.138-.969c-.3-.464-.126-.548-.464-1.77-.211-.927-.422-1.222-.337-1.812A1.545,1.545,0,0,1,1158.48,538.48Z" transform="translate(-1158.132 -510.607)" fill="url(#linear-gradient-11)"/>
      <path id="Path_1465" data-name="Path 1465" d="M1106.559,540.8c-5.859,1.264-11.718,2.487-17.619,3.751-3.583-.8-7.123-1.644-10.706-2.445-.716,1.981-1.433,3.962-2.15,5.985a62.4,62.4,0,0,0,12.6,4.341c.632.126,3.161.548,8.219,1.307,5.564.843,7.039,1.012,8.388,0,1.6-1.18,1.981-3.2,2.276-4.889A13.813,13.813,0,0,0,1106.559,540.8Z" transform="translate(-1067.896 -512.337)" fill="#007bfa"/>
      <path id="Path_1466" data-name="Path 1466" d="M1054.55,509.088h0a.5.5,0,0,0,.422-.59l-.169-.885a.5.5,0,0,0-.59-.422h0a.5.5,0,0,0-.422.59l.169.885A.47.47,0,0,0,1054.55,509.088Z" transform="translate(-1005.687 -492.891)" fill="#212121"/>
      <path id="Path_1467" data-name="Path 1467" d="M1064.15,510.888h0a.5.5,0,0,0,.421-.59l-.168-.885a.5.5,0,0,0-.59-.421h0a.5.5,0,0,0-.422.59l.169.885A.5.5,0,0,0,1064.15,510.888Z" transform="translate(-1019.333 -493.932)" fill="#212121"/>
      <path id="Path_1468" data-name="Path 1468" d="M1054.845,502.706a4.789,4.789,0,0,0-1.981.379c-.126.042-.211-.042-.253-.169s.042-.211.168-.253a9.23,9.23,0,0,1,.969-.3,4.456,4.456,0,0,1,1.012-.084c.126-.042.211.042.253.169C1055.013,502.58,1054.929,502.706,1054.845,502.706Z" transform="translate(-1005.223 -490.05)" fill="#212121"/>
      <path id="Path_1469" data-name="Path 1469" d="M1065.919,504.806a4.788,4.788,0,0,0-1.981.379c-.126.042-.211-.042-.253-.169s.042-.211.168-.253a9.23,9.23,0,0,1,.969-.3,4.456,4.456,0,0,1,1.012-.084c.126-.042.211.042.253.169S1066.045,504.764,1065.919,504.806Z" transform="translate(-1020.976 -491.264)" fill="#212121"/>
      <path id="Path_1470" data-name="Path 1470" d="M1054.848,523.331a2.232,2.232,0,0,0,.632-.3,1.512,1.512,0,0,0,.422-.59c.042-.042,0-.126-.084-.169-.042-.042-.126,0-.168.084a1.082,1.082,0,0,1-.337.464.856.856,0,0,1-.759.253.8.8,0,0,1-.464-.3.254.254,0,0,0-.169-.042c-.042.042-.084.126-.042.169a.908.908,0,0,0,.632.379A.33.33,0,0,0,1054.848,523.331Z" transform="translate(-1006.659 -501.612)" fill="#212121"/>
    </g>
  </g>
  <g id="Group_629" data-name="Group 629" transform="translate(60.528 123.203)">
    <path id="Path_1471" data-name="Path 1471" d="M1186.362,759.473a28.768,28.768,0,0,1-7.966,19.895l-.042.042a28.968,28.968,0,0,1-19.9,8.852h-.927a28.837,28.837,0,0,1-.843-57.661h.843c.632,0,1.265,0,1.855.042h.253a28.935,28.935,0,0,1,5.817,1.012h0a7.716,7.716,0,0,1,1.054.337,11.553,11.553,0,0,1,1.686.632l.885.379c.211.084.421.211.674.3A28.921,28.921,0,0,1,1186.362,759.473Z" transform="translate(-1128.7 -715.424)" fill="#275eff"/>
    <g id="Group_628" data-name="Group 628" transform="translate(6.913)">
      <path id="Path_1472" data-name="Path 1472" d="M1164.877,752.437c2.15,2.023,7.292.253,10.074-2.7a11.189,11.189,0,0,0,2.866-6.618c-1.054-.885-2.15-1.77-3.2-2.656-.506-1.855-.843-3.245-.885-3.456a.436.436,0,0,0-.042-.169c0-.126-.042-.253-.042-.422a2.117,2.117,0,0,0-.084-.506,10.959,10.959,0,0,1-.126-1.1,20.359,20.359,0,0,0-.506-2.318c-.464.169-.969.337-1.433.548-1.054.379-2.108.8-3.161,1.18-.548.211-1.1.379-1.644.59.084.3.126.59.211.885a4.413,4.413,0,0,0,.169.717c.169.674.3,1.265.422,1.728a14.459,14.459,0,0,1,.59,2.613h0v.253a4.116,4.116,0,0,1-.211,1.349,3.515,3.515,0,0,1-.169.506C1167.533,743.122,1163.528,751.172,1164.877,752.437Z" transform="translate(-1142.2 -716.523)" fill="#ffccbc"/>
      <path id="Path_1473" data-name="Path 1473" d="M1174.42,736.4a4.4,4.4,0,0,0,.169.717c.169.674.3,1.265.421,1.728.464,1.9.717,2.065.59,2.613h0v.253a4.12,4.12,0,0,1-.211,1.349,3.453,3.453,0,0,0,2.318.422c2.023-.379,3.709-2.993,3.414-6.407a2.111,2.111,0,0,0-.084-.506,10.922,10.922,0,0,1-.126-1.1,4.732,4.732,0,0,0-1.939-1.77c-1.054.379-2.107.8-3.161,1.18Z" transform="translate(-1149.678 -717.218)" fill="url(#linear-gradient-12)"/>
      <path id="Path_1474" data-name="Path 1474" d="M1167.713,701.594c-3.33.843-4.805,3.92-5.269,4.932-.3.59-.717,1.686-1.1,5.775-.126,1.644-.3,3.92-.253,6.618,0,.422.506,1.012,1.222,1.56,2.318,1.728,6.365.506,8.641-1.433.253-.211.422-.379.548-.506a20.8,20.8,0,0,0,1.813-1.9c1.939-2.234,3.794-4.426,3.92-7.292a7.615,7.615,0,0,0-1.264-4.468A7.9,7.9,0,0,0,1167.713,701.594Z" transform="translate(-1140.147 -698.515)" fill="#ffccbc"/>
      <g id="Group_627" data-name="Group 627" transform="translate(21.022 11.938)">
        <path id="Path_1475" data-name="Path 1475" d="M1182.389,727.162l-1.433-.337a1.376,1.376,0,0,1-1.18-1.391v-.084a.672.672,0,0,1,.843-.379l2.529.548c.506.126.8.506.717.885h0A1.126,1.126,0,0,1,1182.389,727.162Z" transform="translate(-1175.676 -724.093)" fill="#ffdacf"/>
        <path id="Path_1476" data-name="Path 1476" d="M1183.767,726.211v.126h0l-.042.126a1.156,1.156,0,0,1-1.475.717l-1.6-.379h-.042a1.324,1.324,0,0,1-1.1-1.349v-.084l.042-.126c0-.042.042-.084.042-.126a.432.432,0,0,1,.253-.211.8.8,0,0,1,.548-.042l2.613.59h.042A.843.843,0,0,1,1183.767,726.211Zm-.759-.674h0l-2.656-.59a.694.694,0,0,0-.422.042.446.446,0,0,0-.253.3l-.042.126v.084c-.127.506.337,1.054.969,1.222h.042l1.6.379c.632.126,1.222-.126,1.307-.632l.042-.126C1183.683,726,1183.388,725.663,1183.009,725.536Z" transform="translate(-1175.452 -724.027)" fill="#212121"/>
        <path id="Path_1477" data-name="Path 1477" d="M1193.157,724.725l-.59-.126a1.085,1.085,0,0,1-.969-1.138h0a.781.781,0,0,1,1.012-.506l1.644.337c.253.042.464.253.422.464l-.042.211A1.144,1.144,0,0,1,1193.157,724.725Z" transform="translate(-1191.46 -722.921)" fill="#ffdacf"/>
        <path id="Path_1478" data-name="Path 1478" d="M1194.719,723.754h0l-.042.337c-.084.548-.717.843-1.433.717l-.8-.169h-.042a1.376,1.376,0,0,1-.759-.464.755.755,0,0,1-.169-.59l.042-.126a.615.615,0,0,1,.253-.379.929.929,0,0,1,.759-.126l1.728.379a.579.579,0,0,1,.337.211A.142.142,0,0,1,1194.719,723.754Zm-.126-.042c0-.084,0-.169-.084-.211a.232.232,0,0,0-.211-.126h0l-1.728-.337a.675.675,0,0,0-.759.253.322.322,0,0,0-.084.211l-.042.126a.929.929,0,0,0,.042.337h0a1.073,1.073,0,0,0,.759.632h.042l.8.169a1.018,1.018,0,0,0,1.265-.632h0Z" transform="translate(-1191.462 -722.919)" fill="#212121"/>
        <path id="Path_1479" data-name="Path 1479" d="M1189.273,725.126a.473.473,0,0,1,.59-.337.568.568,0,0,1,.379.211c.084.126.169.253.126.379l-.126-.042a.451.451,0,0,0-.084-.253.678.678,0,0,0-.295-.169.4.4,0,0,0-.464.253Z" transform="translate(-1186.185 -723.996)" fill="#212121"/>
        <path id="Path_1480" data-name="Path 1480" d="M1174.6,728.226V728.1l2.15.337v.084Z" transform="translate(-1166.37 -725.916)" fill="#212121"/>
      </g>
      <path id="Path_1481" data-name="Path 1481" d="M1174.954,735.5a3.6,3.6,0,0,1,.211.632c.042.379,0,.717.211.885.042.042.084.042.126.084a1.442,1.442,0,0,1,.632-1.1c.211-.126.464-.126,1.265.042,1.391.3,2.065.464,2.36.885.337.506.084.885.506,1.222a1.625,1.625,0,0,0,1.265.253,7.969,7.969,0,0,0,3.794-1.812c.084.506.126,1.012.211,1.517a12.516,12.516,0,0,0-1.391,1.475c-.464.632-.632.969-.885,1.307a6.4,6.4,0,0,1-4.131,2.4,3.945,3.945,0,0,1-2.951-.379,3.863,3.863,0,0,1-1.307-2.023,6.694,6.694,0,0,1-.379-4.215A5.712,5.712,0,0,1,1174.954,735.5Z" transform="translate(-1154.005 -718.259)" fill="#212121"/>
      <path id="Path_1482" data-name="Path 1482" d="M1192.106,726.9a5.921,5.921,0,0,0-.632,3.035,3.206,3.206,0,0,0,.126.885,1.35,1.35,0,0,1-.759-.717c-.126-.379.042-.717.379-1.349C1191.39,728.333,1191.727,727.743,1192.106,726.9Z" transform="translate(-1167.533 -713.284)" fill="#ffab91"/>
      <path id="Path_1483" data-name="Path 1483" d="M1170.666,774.845c-.169,4.131-.548,5.69-.717,10.664v.126c0,.548.042,2.951.253,6.112l-.042.042a29.368,29.368,0,0,1-12.266,7.587,29.22,29.22,0,0,1-11.633,1.138,62.611,62.611,0,0,0,.295-11.929,30.463,30.463,0,0,1-.337-4.426c.169-3.456,1.349-5.648.969-9.905,0-.169-.042-.337-.042-.421v-.042a6.946,6.946,0,0,1-.084-.885,29.5,29.5,0,0,1-.337-3.92c.169-6.449,4-12.1,4-12.1a19.414,19.414,0,0,1,2.234-2.74h0a26.827,26.827,0,0,0-1.054,2.655,8.476,8.476,0,0,0-.379,1.264,9.982,9.982,0,0,0,3.2-.885,11.642,11.642,0,0,0,5.437-5.185h0a16.757,16.757,0,0,1,3.92,2.234h0c.3.253.632.506.927.759a18.391,18.391,0,0,1,5.564,8.894c.042.084.042.211.084.3h0c.042,1.222.084,3.077.084,5.269C1170.751,771.726,1170.708,773.454,1170.666,774.845Z" transform="translate(-1127.378 -727.804)" fill="url(#linear-gradient-13)"/>
      <path id="Path_1484" data-name="Path 1484" d="M1167.57,775.736c.042,1.222.084,3.077.084,5.269,0,2.234-.042,3.92-.084,5.353a89.752,89.752,0,0,0-.717,10.664v.126c0,2.15.042,4.215.169,6.2a28.461,28.461,0,0,1-6.28,4.932c-.3-.464-.59-.927-.843-1.391-2.445-4.257-1.77-5.775-3.161-6.449-2.065-.927-4.046,2.108-6.786,1.391-1.9-.464-3.077-2.487-3.751-4.131h0a44.2,44.2,0,0,1,19.853-25.8,19.8,19.8,0,0,1,1.391,3.541.455.455,0,0,1,.126.295Z" transform="translate(-1124.282 -739.316)" fill="#90caf9"/>
      <path id="Path_1485" data-name="Path 1485" d="M1174,701.51c-1.77-5.437-7.8-6.66-8.093-6.744a11.267,11.267,0,0,0-5.732.506,6.5,6.5,0,0,0-2.908,2.613c-1.728,2.951-.3,6.154-.169,6.491a4.3,4.3,0,0,1,1.812-2.192c1.981-1.1,4.384.084,5.606,1.18a6.4,6.4,0,0,1,2.065,4.257v2.234a4.59,4.59,0,0,0,.464-.253c.126-1.307,1.1-2.107,1.77-1.981a1.66,1.66,0,0,1,1.012,1.939c-.126.464-.464.422-1.1,1.265s-.632,1.012-.885,1.138c-.211.126-.632.126-1.349-.422a6.32,6.32,0,0,1,.084.927c.084.759.084,1.433.126,2.108.717-.548,1.433-1.054,2.15-1.6a7.792,7.792,0,0,0,2.529-2.192,8.142,8.142,0,0,0,1.349-2.782c.253.253.548.464.8.717A10.421,10.421,0,0,0,1174,701.51Z" transform="translate(-1135.391 -694.596)" fill="#212121"/>
      <path id="Path_1486" data-name="Path 1486" d="M1236.894,784.222l-3.2-6.323-5.185,2.023-.506.506Z" transform="translate(-1228 -742.787)" fill="#212121"/>
      <path id="Path_1487" data-name="Path 1487" d="M1233.481,791.645c-1.981-4.215-4-8.43-5.985-12.645-1.812.674-3.583,1.391-5.4,2.065,1.9,3.92,3.751,7.84,5.648,11.8C1229.645,792.446,1231.584,792.024,1233.481,791.645Z" transform="translate(-1222.1 -743.424)" fill="#212121"/>
      <path id="Path_1488" data-name="Path 1488" d="M1225.18,795.823l-3.414-1.981c-1.138-1.644-2.065-2.908-2.7-3.836-.3-.379-.759-1.054-1.054-.927-.211.084-.253.548-.211.927.3.59.548,1.18.843,1.77a3.543,3.543,0,0,1,.3.759,1.748,1.748,0,0,1,.084.885c-.295.59-2.7.422-4.721-.632-.927-.506-2.234-1.433-2.234-1.433h0a3.92,3.92,0,0,0-.126,1.855c.253.506,1.728,2.656,2.107,3.33s2.318,1.686,2.993,2.36,2.613-.506,4.847.169a34.537,34.537,0,0,0,3.751,1.054C1225.77,800.038,1225.18,795.823,1225.18,795.823Z" transform="translate(-1209.964 -749.245)" fill="#ffccbc"/>
      <path id="Path_1489" data-name="Path 1489" d="M1164.888,765.451c-.717,1.307-1.644,3.5-3.541,7.84-.843,1.9-1.517,3.5-1.981,4.594-4.089-.843-8.177-1.728-12.266-2.571-.253,2.107-.548,4.173-.8,6.28a102.712,102.712,0,0,0,9.821,7.123c1.349.843,3.077,1.939,5.142,1.6a6.205,6.205,0,0,0,3.288-1.855c6.407-6.28,11-15.258,11-15.258.716-1.433,1.728-3.414,2.824-5.859a10.912,10.912,0,0,0-2.993-7.629,10.754,10.754,0,0,0-3.583-2.318A26.958,26.958,0,0,0,1164.888,765.451Z" transform="translate(-1135.046 -730.928)" fill="url(#linear-gradient-14)"/>
      <path id="Path_1490" data-name="Path 1490" d="M1184.865,727.308h0a.4.4,0,0,1-.3-.506l.084-.337a.4.4,0,0,1,.506-.3h0a.4.4,0,0,1,.3.506l-.084.337A.458.458,0,0,1,1184.865,727.308Z" transform="translate(-1158.268 -712.849)" fill="#212121"/>
      <path id="Path_1491" data-name="Path 1491" d="M1194.564,724.908h0a.4.4,0,0,1-.3-.506l.084-.337a.4.4,0,0,1,.506-.3h0a.4.4,0,0,1,.295.506l-.084.337A.4.4,0,0,1,1194.564,724.908Z" transform="translate(-1172.056 -711.46)" fill="#212121"/>
      <path id="Path_1492" data-name="Path 1492" d="M1184.265,722.585a3.911,3.911,0,0,0-.927-.337,4.374,4.374,0,0,0-.969-.126.215.215,0,0,1,.084-.422,3.117,3.117,0,0,1,.97.169,3.9,3.9,0,0,1,.927.337.231.231,0,0,1,.169.253A.2.2,0,0,1,1184.265,722.585Z" transform="translate(-1156.32 -710.276)" fill="#212121"/>
      <path id="Path_1493" data-name="Path 1493" d="M1193.365,720.285a3.905,3.905,0,0,0-.927-.337,4.371,4.371,0,0,0-.969-.126.215.215,0,1,1,.084-.422,3.118,3.118,0,0,1,.969.169,3.914,3.914,0,0,1,.927.337.231.231,0,0,1,.169.253C1193.576,720.243,1193.45,720.327,1193.365,720.285Z" transform="translate(-1169.255 -708.945)" fill="#212121"/>
      <path id="Path_1494" data-name="Path 1494" d="M1189.621,740.1l.843.211a1.419,1.419,0,0,0,1.686-1.012l.127-.548a1.406,1.406,0,0,1-.127-.253l-3.119-.8a1.4,1.4,0,0,1-.253.126l-.126.548A1.4,1.4,0,0,0,1189.621,740.1Z" transform="translate(-1166.775 -719.532)" fill="#ffccbc"/>
    </g>
  </g>
  <g id="Group_630" data-name="Group 630" transform="translate(34.057)">
    <path id="Path_1495" data-name="Path 1495" d="M1224.663,414.767a.805.805,0,0,1-.59-.3.772.772,0,0,1,.169-1.012c.8-.548,1.686-1.1,2.529-1.6a.737.737,0,0,1,.759,1.265c-.8.464-1.644.969-2.4,1.517A1.1,1.1,0,0,1,1224.663,414.767Z" transform="translate(-1183.903 -407.77)" fill="#007bfa"/>
    <path id="Path_1496" data-name="Path 1496" d="M1083.378,450.393a31.305,31.305,0,0,0,1.686-5.69.728.728,0,1,0-1.433-.253,28.171,28.171,0,0,1-1.6,5.4.762.762,0,0,0,.379.969.626.626,0,0,0,.3.042A.684.684,0,0,0,1083.378,450.393Zm-58.673-9.357a26.318,26.318,0,0,0,5.817-1.265.733.733,0,1,0-.464-1.391,25.992,25.992,0,0,1-5.522,1.18.719.719,0,0,0-.632.8.731.731,0,0,0,.717.674Zm-5.142-.843a.7.7,0,0,0-.548-.843L1018,439.1a11.6,11.6,0,0,1-4.046-1.77.721.721,0,1,0-.885,1.138,13.616,13.616,0,0,0,4.552,2.023c.337.084.716.169,1.1.253h.169A.639.639,0,0,0,1019.563,440.193Zm65.164-.674a.708.708,0,0,0,.674-.759,9.648,9.648,0,0,0-.127-1.1,21.8,21.8,0,0,0-1.1-4.721.733.733,0,0,0-1.391.464,22.585,22.585,0,0,1,1.012,4.468,8.2,8.2,0,0,1,.084,1.054.731.731,0,0,0,.717.674Zm-48.768-1.939c1.6-.759,3.288-1.6,5.185-2.7a.745.745,0,1,0-.717-1.307c-1.855,1.054-3.541,1.9-5.1,2.613a.708.708,0,0,0-.337.969.751.751,0,0,0,.674.422A.251.251,0,0,0,1035.959,437.58Zm-23.435-4.552a18.4,18.4,0,0,1,2.487-4.257l.379-.548a.725.725,0,0,0-1.18-.843l-.379.548a20.276,20.276,0,0,0-2.656,4.636.74.74,0,0,0,.464.927.458.458,0,0,0,.211.042A.722.722,0,0,0,1012.524,433.027Zm33.678-1.054c.8-.464,1.6-.969,2.4-1.475.843-.506,1.728-1.054,2.571-1.56a.737.737,0,0,0-.759-1.265c-.843.506-1.686,1.012-2.571,1.56-.8.464-1.6.969-2.4,1.433a.722.722,0,0,0,.379,1.349A.321.321,0,0,0,1046.2,431.974Zm35.322-3.456a.75.75,0,0,0,.253-1.012,18.334,18.334,0,0,0-3.878-4.594.718.718,0,0,0-.927,1.1,17.145,17.145,0,0,1,3.541,4.257.743.743,0,0,0,.632.337A1.23,1.23,0,0,0,1081.524,428.517Zm-25.332-2.4a47.562,47.562,0,0,1,5.142-2.529.736.736,0,0,0-.59-1.349,54.936,54.936,0,0,0-5.269,2.613.755.755,0,0,0-.295.969.7.7,0,0,0,.632.379A1.231,1.231,0,0,0,1056.192,426.115Zm-37.851-3.035a13.521,13.521,0,0,0,1.1-5.353v-.632a.747.747,0,0,0-.759-.717.721.721,0,0,0-.716.759v.548a12.456,12.456,0,0,1-1.012,4.805.762.762,0,0,0,.379.969.625.625,0,0,0,.3.042A.654.654,0,0,0,1018.341,423.08Zm48.346-1.307a13.449,13.449,0,0,1,5.479-.126.728.728,0,0,0,.253-1.433,14.634,14.634,0,0,0-6.027.126.716.716,0,0,0-.548.843.761.761,0,0,0,.717.59C1066.561,421.815,1066.6,421.773,1066.687,421.773Zm-49.189-9.526a.72.72,0,0,0,.337-.969,18.94,18.94,0,0,0-3.583-4.847.716.716,0,1,0-.969,1.054,16.885,16.885,0,0,1,3.288,4.426.7.7,0,0,0,.632.379A.37.37,0,0,0,1017.5,412.247Zm-25.543-7a28.883,28.883,0,0,1,5.479-1.349.721.721,0,1,0-.169-1.433,31.125,31.125,0,0,0-5.775,1.391.74.74,0,0,0-.464.927.765.765,0,0,0,.674.506A.535.535,0,0,0,991.955,405.25Zm17.535-1.012a.74.74,0,0,0-.464-.927,21.4,21.4,0,0,0-5.9-1.012.714.714,0,0,0-.759.674.689.689,0,0,0,.674.759,21.59,21.59,0,0,1,5.522.927.534.534,0,0,0,.253.042A.6.6,0,0,0,1009.489,404.239Z" transform="translate(-943.229 -402.3)" fill="#007bfa"/>
    <path id="Path_1497" data-name="Path 1497" d="M1002.841,530.009a.634.634,0,0,1-.464-.169.728.728,0,0,1-.084-1.012c.59-.717,1.18-1.475,1.728-2.276a.731.731,0,0,1,1.222.8c-.548.8-1.18,1.6-1.812,2.36A.886.886,0,0,1,1002.841,530.009Z" transform="translate(-867.876 -473.992)" fill="#007bfa"/>
    <path id="Path_1498" data-name="Path 1498" d="M994.26,760.458a24.5,24.5,0,0,0,5.859-1.18.733.733,0,0,0-.464-1.391,22.123,22.123,0,0,1-5.522,1.1.722.722,0,0,0-.674.8.731.731,0,0,0,.717.674Zm-5.142-.8a.713.713,0,0,0-.632-.8,31.826,31.826,0,0,1-5.522-1.307.733.733,0,1,0-.464,1.391,27.837,27.837,0,0,0,5.817,1.391h.084A.8.8,0,0,0,989.118,759.657Zm16.4-2.993c.169-.126.337-.211.506-.337a22.026,22.026,0,0,0,4-3.667.718.718,0,0,0-1.1-.927,19.23,19.23,0,0,1-3.751,3.414,2.829,2.829,0,0,1-.464.3.738.738,0,0,0-.211,1.012.726.726,0,0,0,.59.337A.629.629,0,0,0,1005.514,756.665Zm7.84-8.978a28.919,28.919,0,0,0,2.107-5.606.721.721,0,1,0-1.391-.379,25.927,25.927,0,0,1-1.981,5.311.708.708,0,0,0,.337.969.794.794,0,0,0,.337.084A.681.681,0,0,0,1013.354,747.687Zm2.065-10.833a.721.721,0,0,0,.716-.759,20.646,20.646,0,0,0-1.012-5.9.733.733,0,0,0-1.391.464,21.123,21.123,0,0,1,.97,5.522.676.676,0,0,0,.717.674Zm-2.908-11.212a.72.72,0,0,0,.337-.969l-.253-.506a22.854,22.854,0,0,1-1.939-4.721.736.736,0,0,0-1.433.337,24.333,24.333,0,0,0,2.023,5.058l.253.464a.751.751,0,0,0,.674.422A.506.506,0,0,0,1012.511,725.642Zm-.548-10.833c1.012-1.012,2.529-1.644,4.889-2.108a.728.728,0,0,0-.253-1.433,10.523,10.523,0,0,0-5.648,2.487.688.688,0,0,0,0,1.012.778.778,0,0,0,.506.211A.542.542,0,0,0,1011.963,714.81Zm10.664-2.908a32.2,32.2,0,0,0,5.817-1.265.733.733,0,1,0-.464-1.391,29.276,29.276,0,0,1-5.564,1.18.744.744,0,0,0-.632.8.724.724,0,0,0,.717.632A.155.155,0,0,0,1022.627,711.9Zm11.085-4.215a12.8,12.8,0,0,0,1.9-2.108,14.67,14.67,0,0,0,1.6-2.866.736.736,0,1,0-1.349-.59,12.627,12.627,0,0,1-1.433,2.571,12.051,12.051,0,0,1-1.686,1.9.689.689,0,0,0-.042,1.012.68.68,0,0,0,.548.253A.634.634,0,0,0,1033.713,707.686Zm4.847-10.875c.042-.548.042-1.012.042-1.349v-.506a19.346,19.346,0,0,0-.422-4.131.736.736,0,0,0-1.433.337,19.789,19.789,0,0,1,.422,3.836v.464c0,.3,0,.759-.042,1.265a.666.666,0,0,0,.675.759h.042A.7.7,0,0,0,1038.56,696.812Zm-2.74-10.664a.7.7,0,0,0,.3-.969,22.451,22.451,0,0,0-3.5-4.889.716.716,0,1,0-1.054.969,21.006,21.006,0,0,1,3.245,4.594.7.7,0,0,0,.632.379A.842.842,0,0,0,1035.82,686.148Z" transform="translate(-892.636 -562.985)" fill="#007bfa"/>
    <path id="Path_1499" data-name="Path 1499" d="M1262.325,637.9a.041.041,0,0,1,.042-.042,23.559,23.559,0,0,0,1.644-4.594.721.721,0,1,0-1.391-.379,24.52,24.52,0,0,1-1.517,4.3.755.755,0,0,0,.3.969.627.627,0,0,0,.379.084A.548.548,0,0,0,1262.325,637.9Zm2.571-10.538v-1.012a18.342,18.342,0,0,0-.632-5.016.721.721,0,1,0-1.391.379,17.168,17.168,0,0,1,.548,4.594v.927a.721.721,0,0,0,.716.759h.042A.635.635,0,0,0,1264.9,627.358Zm-21.75-8.261a39.178,39.178,0,0,0,5.9-.632.728.728,0,1,0-.253-1.433,36.641,36.641,0,0,1-5.69.632.721.721,0,0,0-.716.759.81.81,0,0,0,.759.674Zm-5.1-1.1a.714.714,0,0,0-.59-.843c-.885-.169-1.77-.379-2.7-.632-.717-.211-1.728-.506-2.824-.885a.72.72,0,1,0-.506,1.349c1.138.422,2.15.717,2.908.927.927.253,1.854.506,2.782.674h.126A.72.72,0,0,0,1238.047,618Zm22.93-.759a.7.7,0,0,0-.3-.969,6.589,6.589,0,0,0-3.246-.717,16.532,16.532,0,0,0-2.95.3.728.728,0,1,0,.253,1.433,14.091,14.091,0,0,1,2.7-.3,5.1,5.1,0,0,1,2.529.548.993.993,0,0,0,.337.084A.715.715,0,0,0,1260.977,617.242Zm-33.889-3.035a.739.739,0,0,0-.211-1.012,15.366,15.366,0,0,1-4.131-3.709.721.721,0,0,0-1.138.885,16.207,16.207,0,0,0,4.51,4.046.68.68,0,0,0,.379.126A.726.726,0,0,0,1227.088,614.207Zm-7.166-8.809a.739.739,0,0,0,.548-.885,13.359,13.359,0,0,1-.3-2.908,18.7,18.7,0,0,1,.211-2.613.728.728,0,0,0-1.433-.253,16.353,16.353,0,0,0-.253,2.824,16.621,16.621,0,0,0,.337,3.246.761.761,0,0,0,.717.59Zm2.108-11.8a26.692,26.692,0,0,1,2.866-4.889.721.721,0,1,0-1.138-.885,25.663,25.663,0,0,0-3.035,5.184.725.725,0,0,0,.379.969.782.782,0,0,0,.3.084A.711.711,0,0,0,1222.03,593.6Z" transform="translate(-1218.7 -509.464)" fill="#007bfa"/>
  </g>
  <g id="Group_632" data-name="Group 632" transform="translate(0 2.434)">
    <path id="Path_1500" data-name="Path 1500" d="M1083.669,725.667a13.615,13.615,0,0,0,4.468-1.686l.759-.506h0c3.2-2.276,6.2-6.786,5.184-11.3-.548-2.571-1.728-4.257-3.456-4.889-2.318-.843-5.142.253-7.081,2.655-1.939-2.4-4.763-3.541-7.081-2.655-1.18.464-2.782,1.644-3.456,4.889a7.841,7.841,0,0,0-.169,1.391c-.211,4.046,2.571,7.882,5.4,9.905a12.571,12.571,0,0,0,5.227,2.192h.211Zm-.759-14.078a.762.762,0,0,0,1.265,0c1.475-2.4,4.046-3.667,5.943-2.951,1.222.464,2.107,1.77,2.571,3.836.843,3.836-1.813,7.8-4.637,9.821a5.9,5.9,0,0,1-.674.421,10.852,10.852,0,0,1-3.836,1.475,11.649,11.649,0,0,1-4.51-1.939c-2.487-1.812-4.932-5.185-4.763-8.683a10.422,10.422,0,0,1,.126-1.138c.548-2.571,1.686-3.5,2.571-3.836a3.219,3.219,0,0,1,1.138-.211A6.361,6.361,0,0,1,1082.91,711.589Zm5.564,11.3Z" transform="translate(-952.54 -580.997)" fill="#007bfa"/>
    <path id="Path_1501" data-name="Path 1501" d="M1276.817,720.7h2.74a1.313,1.313,0,0,1,1.307,1.307l.084,10.875a1.3,1.3,0,0,1-1.307,1.307h-2.824a.71.71,0,0,1-.716-.717V721.417A.71.71,0,0,1,1276.817,720.7Zm.717,12.224h2.023l-.084-10.917h-1.939v10.917Z" transform="translate(-1224.888 -588.928)" fill="#007bfa"/>
    <path id="Path_1502" data-name="Path 1502" d="M1293.708,709.256c.927-.126,1.854-.253,2.74-.337.421-.042.885-.084,1.307-.126l-.253-.421a8.82,8.82,0,0,1-1.012-2.445c-.253-1.054-.674-2.613.253-3.667a2.217,2.217,0,0,1,1.56-.759.537.537,0,0,1,.464.211l3.246,4.173.084.084a22.557,22.557,0,0,0,3.372,3.161,2.69,2.69,0,0,0,.59.337,1.012,1.012,0,0,1,.506.843v12.055a.65.65,0,0,1-.379.548,2.176,2.176,0,0,1-.464.084c-.674.126-1.391.211-2.065.3-.337.042-1.222.126-2.276.169-.337,0-.843.042-1.391.042a19.339,19.339,0,0,1-3.035-.169c-1.854-.422-2.951-2.782-3.625-5.4a39.3,39.3,0,0,1-1.011-6.786A1.649,1.649,0,0,1,1293.708,709.256Zm-.042,1.686c.422,7.166,2.15,10.748,3.583,11.086a28.406,28.406,0,0,0,4.131.126c1.012-.042,1.9-.126,2.192-.169.548-.042,1.1-.126,1.6-.211V710.562a4.453,4.453,0,0,1-.464-.3,25.9,25.9,0,0,1-3.667-3.456l-3.077-3.92-.126.126c-.422.464-.127,1.644.084,2.4a7.351,7.351,0,0,0,.843,2.065l.927,1.433a.727.727,0,0,1,.042.717.761.761,0,0,1-.59.422l-2.529.253c-.927.084-1.855.211-2.74.337a.281.281,0,0,0-.211.3Z" transform="translate(-1257.332 -577.821)" fill="#007bfa"/>
    <path id="Path_1503" data-name="Path 1503" d="M1082.933,430.046a12.6,12.6,0,0,0,4.089-.674.72.72,0,0,0,.464-.843.772.772,0,0,0-.759-.59,6.926,6.926,0,0,1-5.142-1.9c-.632-.674-2.065-2.4-1.644-4.131.379-1.517,2.023-2.7,4.089-3.035v2.571a.7.7,0,0,0,.379.632.724.724,0,0,0,.716,0l10.791-6.323a.783.783,0,0,0,.379-.632.7.7,0,0,0-.379-.632l-10.791-6.323a.724.724,0,0,0-.716,0,.783.783,0,0,0-.379.632v2.782a14.081,14.081,0,0,0-4.763,1.349h0c-1.9.969-6.323,3.709-6.365,8.219a8.11,8.11,0,0,0,2.656,5.9A9.944,9.944,0,0,0,1082.933,430.046Zm1.813-12.687h0c-3.119.126-5.648,1.855-6.238,4.215s1.012,4.468,2.023,5.48a7.5,7.5,0,0,0,2.192,1.56,8.772,8.772,0,0,1-6.154-2.529,6.9,6.9,0,0,1-2.234-4.847c.042-3.709,3.92-6.112,5.564-6.955h0a11.81,11.81,0,0,1,4.847-1.265.739.739,0,0,0,.716-.717v-2.192l8.641,5.016-8.641,5.016v-2.108a.7.7,0,0,0-.211-.506A.735.735,0,0,0,1084.746,417.359Z" transform="translate(-954.586 -408.075)" fill="#007bfa"/>
    <path id="Path_1504" data-name="Path 1504" d="M1378.645,549.574v14.963a.71.71,0,0,1-.717.717h-20.611a.71.71,0,0,1-.716-.717V549.574h0v-.126c0-.042,0-.042.042-.084,0-.042,0-.042.042-.084a.041.041,0,0,1,.042-.042c0-.042.042-.042.042-.084h0l.042-.042.042-.042.042-.042.042-.042.042-.042c.042,0,.042-.042.084-.042h21.2c.042,0,.042,0,.084.042a.041.041,0,0,1,.042.042l.042.042.042.042.042.042.042.042h0c0,.042.042.042.042.084l.042.042a.131.131,0,0,0,.042.084c0,.042,0,.042.042.084v.042c-.084,0-.084.042-.084.084Zm-19.094.717,8.051,5.859,8.051-5.859Zm17.661,13.53V551.008l-9.146,6.66a.814.814,0,0,1-.422.126.712.712,0,0,1-.422-.126l-9.146-6.66v12.814Z" transform="translate(-1356.601 -489.542)" fill="#007bfa"/>
    <g id="Group_631" data-name="Group 631" transform="translate(87.082 68.673)">
      <path id="Path_1505" data-name="Path 1505" d="M1171.156,589.335a.751.751,0,0,0,.422-.674v-3.878h1.686a.71.71,0,0,0,.716-.717v-12.35a.71.71,0,0,0-.716-.717h-19.347a.71.71,0,0,0-.717.717v12.35a.71.71,0,0,0,.717.717H1165l5.4,4.426a.634.634,0,0,0,.464.169A.37.37,0,0,0,1171.156,589.335Zm-16.523-16.9H1172.5V583.35h-1.686a.71.71,0,0,0-.717.717v3.077l-4.384-3.625a.634.634,0,0,0-.464-.169h-10.622Z" transform="translate(-1153.2 -571)" fill="#007bfa"/>
      <path id="Path_1506" data-name="Path 1506" d="M1165.48,585a1.18,1.18,0,1,0,1.18,1.18A1.178,1.178,0,0,0,1165.48,585Zm5.732,1.18a1.18,1.18,0,1,1-1.18-1.18A1.206,1.206,0,0,1,1171.213,586.18Zm4.51,0a1.178,1.178,0,0,1-1.18,1.18,1.206,1.206,0,0,1-1.18-1.18,1.178,1.178,0,0,1,1.18-1.18A1.206,1.206,0,0,1,1175.723,586.18Z" transform="translate(-1159.621 -579.099)" fill="#007bfa"/>
    </g>
  </g>
</svg>
